<svg class="main-svg" xmlns="http://www.w3.org/2000/svg" xmlns:xlink="http://www.w3.org/1999/xlink" width="700" height="450" style="" viewBox="0 0 700 450"><rect x="0" y="0" width="700" height="450" style="fill: rgb(255, 255, 255); fill-opacity: 1;"/><defs id="defs-914103"><g class="clips"><clipPath id="clip914103xyplot" class="plotclip"><rect width="580" height="330"/></clipPath><clipPath class="axesclip" id="clip914103x"><rect x="60" y="0" width="580" height="450"/></clipPath><clipPath class="axesclip" id="clip914103y"><rect x="0" y="60" width="700" height="330"/></clipPath><clipPath class="axesclip" id="clip914103xy"><rect x="60" y="60" width="580" height="330"/></clipPath></g><g class="gradients"/></defs><g class="bglayer"/><g class="layer-below"><g class="imagelayer"/><g class="shapelayer"/></g><g class="cartesianlayer"><g class="subplot xy"><g class="layer-subplot"><g class="shapelayer"/><g class="imagelayer"/></g><g class="gridlayer"><g class="x"><path class="xgrid crisp" transform="translate(156.82999999999998,0)" d="M0,60v330" style="stroke: rgb(238, 238, 238); stroke-opacity: 1; stroke-width: 1px;"/><path class="xgrid crisp" transform="translate(253.66,0)" d="M0,60v330" style="stroke: rgb(238, 238, 238); stroke-opacity: 1; stroke-width: 1px;"/><path class="xgrid crisp" transform="translate(350.48,0)" d="M0,60v330" style="stroke: rgb(238, 238, 238); stroke-opacity: 1; stroke-width: 1px;"/><path class="xgrid crisp" transform="translate(447.31,0)" d="M0,60v330" style="stroke: rgb(238, 238, 238); stroke-opacity: 1; stroke-width: 1px;"/><path class="xgrid crisp" transform="translate(544.14,0)" d="M0,60v330" style="stroke: rgb(238, 238, 238); stroke-opacity: 1; stroke-width: 1px;"/></g><g class="y"><path class="ygrid crisp" transform="translate(0,339.06)" d="M60,0h580" style="stroke: rgb(238, 238, 238); stroke-opacity: 1; stroke-width: 1px;"/><path class="ygrid crisp" transform="translate(0,270.24)" d="M60,0h580" style="stroke: rgb(238, 238, 238); stroke-opacity: 1; stroke-width: 1px;"/><path class="ygrid crisp" transform="translate(0,201.43)" d="M60,0h580" style="stroke: rgb(238, 238, 238); stroke-opacity: 1; stroke-width: 1px;"/><path class="ygrid crisp" transform="translate(0,132.61)" d="M60,0h580" style="stroke: rgb(238, 238, 238); stroke-opacity: 1; stroke-width: 1px;"/><path class="ygrid crisp" transform="translate(0,63.8)" d="M60,0h580" style="stroke: rgb(238, 238, 238); stroke-opacity: 1; stroke-width: 1px;"/></g></g><g class="zerolinelayer"><path class="xzl zl crisp" transform="translate(60,0)" d="M0,60v330" style="stroke: rgb(68, 68, 68); stroke-opacity: 1; stroke-width: 1px;"/></g><path class="xlines-below"/><path class="ylines-below"/><g class="overlines-below"/><g class="xaxislayer-below"/><g class="yaxislayer-below"/><g class="overaxes-below"/><g class="plot" transform="translate(60, 60)" clip-path="url(#clip914103xyplot)"><g class="scatterlayer mlayer"><g class="trace scatter trace69a850" style="stroke-miterlimit: 2; opacity: 1;"><g class="fills"/><g class="errorbars"/><g class="lines"><path class="js-line" d="M0,16.5L1.94,98.67L2.9,115.96L5.81,151.91L6.78,156.53L11.62,179.61L12.59,181.85L20.33,197.67L21.3,198.98L28.08,207.28L29.05,207.97L32.92,211.08L33.89,211.66L36.79,214.39L37.76,215.22L47.45,220.78L48.41,244.3L49.38,251.72L50.35,251.23L51.32,250.77L52.29,251.93L53.26,253.57L54.22,252.9L57.13,255.6L58.1,255.55L60.03,255.24L61,255.76L63.91,256.59L64.87,256.33L68.75,256.77L69.72,256.77L72.62,256.13L73.59,256.07L76.49,255.65L77.46,255.97L90.05,257.2L91.02,257.34L95.86,257.89L96.83,269.13L98.76,273.29L99.73,273.35L100.7,271.67L101.67,272.02L103.61,273.15L104.57,272.78L106.51,271.16L107.48,270.27L116.19,269.06L117.16,268.97L128.78,270.61L129.75,270.73L139.43,270.92L140.4,270.67L144.27,271.04L145.24,285.17L146.21,287.34L147.18,285.99L148.15,285.98L149.12,284.22L150.08,284.3L151.05,285.36L152.02,286.08L152.99,284.77L155.89,282.62L156.86,282.51L157.83,282.2L158.8,282.68L160.73,282.93L161.7,282.65L165.58,282.19L166.54,282.12L174.29,281.05L175.26,280.97L183.97,280.79L184.94,280.69L192.69,280.44L193.66,287.14L194.62,285.72L195.59,287.5L196.56,288.6L197.53,288.28L199.47,289.58L200.43,288.71L202.37,288.59L203.34,288.47L208.18,288.33L209.15,287.94L213.02,287.67L213.99,287.34L220.77,287.34L221.74,287L224.64,287.08L225.61,287.21L230.45,286.45L231.42,286.42L241.1,286.09L242.07,291.01L243.04,290.81L244.01,291.76L247.88,292.5L248.85,293.76L251.75,293.31L252.72,293.05L258.53,293.33L259.5,292.86L261.44,292.34L262.4,292.17L269.18,291.96L270.15,292.08L287.58,291.22L288.55,291.33L289.52,291.37L290.48,294.51L292.42,298.59L293.39,297.65L295.33,296.23L296.29,296.95L298.23,295.61L299.2,296.07L301.14,296.1L302.1,295.92L305.01,294.41L305.98,294.2L308.88,294.51L309.85,294.37L313.72,294.88L314.69,294.89L320.5,294.34L321.47,294.46L337.93,293.98L338.9,297.09L340.83,300.49L341.8,299.17L342.77,299.17L343.74,297.95L348.58,299.27L349.55,298.71L352.45,298.65L353.42,298.48L386.34,297.88L387.31,300.26L389.25,299.65L390.22,301.58L392.15,300.94L393.12,301.46L398.93,300.53L399.9,300.46L404.74,300.63L405.71,300.59L410.55,300.83L411.52,300.92L419.27,300.98L420.23,301.15L428.95,300.96L429.92,300.97L434.76,300.5L435.73,301.87L437.66,304.55L438.63,304.16L444.44,301.89L445.41,302.25L448.31,303.02L449.28,303.19L453.16,302.48L454.12,302.75L462.84,302.61L463.81,302.86L467.68,302.32L468.65,302.34L471.55,302.39L472.52,302.3L483.17,302.46L484.14,304.32L485.11,307.84L486.08,308.34L487.05,308.29L488.01,309.26L489.95,309.36L490.92,309.82L493.82,309.22L494.79,309.54L500.6,309.98L501.57,310L508.35,310.2L509.32,310.42L518.03,310.77L519,310.98L531.59,311.34L532.55,313.5L534.49,312.72L535.46,312.33L539.33,312.59L540.3,312.11L544.17,312.77L545.14,313.05L549.02,312.49L549.98,312.66L553.86,312.38L554.82,312.47L559.67,312.44L560.63,312.23L578.06,312.98L579.03,313L580,312.92" style="vector-effect: non-scaling-stroke; fill: none; stroke: rgb(31, 119, 180); stroke-opacity: 1; stroke-width: 2px; opacity: 1;"/></g><g class="points"/><g class="text"/></g></g></g><g class="overplot"/><path class="xlines-above crisp" d="M0,0" style="fill: none;"/><path class="ylines-above crisp" d="M0,0" style="fill: none;"/><g class="overlines-above"/><g class="xaxislayer-above"><g class="xtick"><text text-anchor="middle" x="0" y="403" transform="translate(60,0)" style="font-family: 'Open Sans', verdana, arial, sans-serif; font-size: 12px; fill: rgb(68, 68, 68); fill-opacity: 1; white-space: pre;">0</text></g><g class="xtick"><text text-anchor="middle" x="0" y="403" transform="translate(156.82999999999998,0)" style="font-family: 'Open Sans', verdana, arial, sans-serif; font-size: 12px; fill: rgb(68, 68, 68); fill-opacity: 1; white-space: pre;">100</text></g><g class="xtick"><text text-anchor="middle" x="0" y="403" transform="translate(253.66,0)" style="font-family: 'Open Sans', verdana, arial, sans-serif; font-size: 12px; fill: rgb(68, 68, 68); fill-opacity: 1; white-space: pre;">200</text></g><g class="xtick"><text text-anchor="middle" x="0" y="403" transform="translate(350.48,0)" style="font-family: 'Open Sans', verdana, arial, sans-serif; font-size: 12px; fill: rgb(68, 68, 68); fill-opacity: 1; white-space: pre;">300</text></g><g class="xtick"><text text-anchor="middle" x="0" y="403" transform="translate(447.31,0)" style="font-family: 'Open Sans', verdana, arial, sans-serif; font-size: 12px; fill: rgb(68, 68, 68); fill-opacity: 1; white-space: pre;">400</text></g><g class="xtick"><text text-anchor="middle" x="0" y="403" transform="translate(544.14,0)" style="font-family: 'Open Sans', verdana, arial, sans-serif; font-size: 12px; fill: rgb(68, 68, 68); fill-opacity: 1; white-space: pre;">500</text></g></g><g class="yaxislayer-above"><g class="ytick"><text text-anchor="end" x="59" y="4.199999999999999" transform="translate(0,339.06)" style="font-family: 'Open Sans', verdana, arial, sans-serif; font-size: 12px; fill: rgb(68, 68, 68); fill-opacity: 1; white-space: pre;">0.2</text></g><g class="ytick"><text text-anchor="end" x="59" y="4.199999999999999" transform="translate(0,270.24)" style="font-family: 'Open Sans', verdana, arial, sans-serif; font-size: 12px; fill: rgb(68, 68, 68); fill-opacity: 1; white-space: pre;">0.4</text></g><g class="ytick"><text text-anchor="end" x="59" y="4.199999999999999" transform="translate(0,201.43)" style="font-family: 'Open Sans', verdana, arial, sans-serif; font-size: 12px; fill: rgb(68, 68, 68); fill-opacity: 1; white-space: pre;">0.6</text></g><g class="ytick"><text text-anchor="end" x="59" y="4.199999999999999" transform="translate(0,132.61)" style="font-family: 'Open Sans', verdana, arial, sans-serif; font-size: 12px; fill: rgb(68, 68, 68); fill-opacity: 1; white-space: pre;">0.8</text></g><g class="ytick"><text text-anchor="end" x="59" y="4.199999999999999" transform="translate(0,63.8)" style="font-family: 'Open Sans', verdana, arial, sans-serif; font-size: 12px; fill: rgb(68, 68, 68); fill-opacity: 1; white-space: pre;">1</text></g></g><g class="overaxes-above"/></g></g><g class="polarlayer"/><g class="ternarylayer"/><g class="geolayer"/><g class="pielayer"/><g class="glimages"/><defs id="topdefs-914103"><g class="clips"/></defs><g class="layer-above"><g class="imagelayer"/><g class="shapelayer"/></g><g class="infolayer"><g class="g-gtitle"><text class="gtitle" x="350" y="30" text-anchor="middle" dy="0em" style="font-family: 'Open Sans', verdana, arial, sans-serif; font-size: 17px; fill: rgb(68, 68, 68); opacity: 1; font-weight: normal; white-space: pre;">roi_cls_loss</text></g><g class="g-xtitle"/><g class="g-ytitle"/></g></svg>